<svg width="1263" height="500" viewBox="0 0 1263 500" fill="none" xmlns="http://www.w3.org/2000/svg">
<path d="M299.564 285.184V286.804H324.836V290.044H323.54V294.904H256.472V296.524H268.136V301.384H303.776V304.624H285.308V311.104H284.336V312.724H262.952V317.584H294.704V319.204H296V324.064H299.24V330.544H236.708V335.404H302.804V338.644H280.772V343.504H277.856V346.744H285.308V349.984H280.448V353.224H291.788L290.816 356.464H306.044C305.612 357.112 305.072 357.76 304.424 358.408C303.992 358.84 303.452 359.272 302.804 359.704H310.256C309.176 360.568 307.664 361 305.72 361H242.216C240.272 361 238.76 360.568 237.68 359.704H230.228C228.716 359.056 227.636 357.976 226.988 356.464H211.76L210.788 353.224H199.448V349.984H204.308V346.744H196.856V343.504H199.772V338.644H221.804V335.404H163.16V338.644H136.268V343.504H154.736V346.744H150.2V349.984H167.048V353.224H148.904L147.932 356.464H155.06C154.196 357.976 153.224 359.056 152.144 359.704H144.368C143.288 360.568 141.776 361 139.832 361H76.328C74.168 361 72.548 360.568 71.468 359.704H79.244C78.164 359.056 77.192 357.976 76.328 356.464H68.876C68.228 355.384 67.904 354.304 67.904 353.224H86.048V349.984H69.2V346.744H73.736V343.504H55.268V338.644H82.16V335.404H97.712V330.544H47.816V324.064H66.284V319.204H79.244V317.584H70.172V312.724H54.944V311.104H58.184V304.624H68.552V301.384H73.412V296.524H50.084V294.904H110.024V290.044H36.8V286.804H105.812V285.184H72.116V280.324H91.556V278.704H95.444V277.084H93.824V270.604H61.748V265.744H72.44V264.124H69.524V259.264H70.82V257.644H71.144V254.404H71.468V252.784H67.256V251.164H54.62V246.304H58.832V241.444H52.352V236.584H68.552V230.104H64.988V226.864H41.336V225.244H79.244V222.004H88.316V220.384H0.835996V218.764H52.352V217.144H70.82V212.284H37.772V205.804H28.7V200.944H67.58V194.464H70.82V189.604H91.556V187.984H73.736V181.504H88.316V178.264H70.82V176.644H64.664V173.404H55.268V170.164H43.928V163.684H64.34V158.824H76.652V153.964H70.82V150.724H62.72V149.104H67.256V145.864H66.284V142.948C66.284 141.436 66.608 140.248 67.256 139.384H87.992C88.208 138.736 88.532 138.196 88.964 137.764C89.396 137.116 89.828 136.576 90.26 136.144H140.156C141.452 134.848 143.288 134.2 145.664 134.2H270.08C272.24 134.2 274.076 134.848 275.588 136.144H325.484C325.916 136.576 326.348 137.116 326.78 137.764C327.428 138.196 327.86 138.736 328.076 139.384H286.28C286.712 140.68 286.928 141.868 286.928 142.948V145.864H288.548V149.104H293.084V150.724H284.336V153.964H280.448V158.824H293.084V163.684H262.628V170.164H297.62V173.404H272.348V176.644H282.716V178.264H277.532V181.504H301.832V187.984H266.192V189.604H293.732V194.464H288.872V200.944H262.952V205.804H252.26V212.284H285.308V217.144H266.84V218.764H215.324V220.384H302.804V222.004H293.732V225.244H255.824V226.864H279.476V230.104H283.04V236.584H266.84V241.444H273.32V246.304H269.108V251.164H281.744V252.784H285.956V254.404H285.632V257.644H285.308V259.264H284.012V264.124H286.928V265.744H276.236V270.604H308.312V277.084H309.932V278.704H306.044V280.324H286.604V285.184H299.564ZM109.7 200.944V205.804H118.772V210.988H171.26V205.804H181.952V200.944H207.872V194.464H212.732V189.604H185.192V187.984H220.832V181.504H196.532V178.264H201.716V176.644H191.348V173.404H216.62V170.164H181.628V163.684H212.084V158.824H199.448V153.964H203.336V150.724H212.084V149.104H207.548V145.864H205.928V142.948C205.928 141.868 206.144 140.68 206.576 139.384H248.372C248.804 138.736 249.236 138.196 249.668 137.764C250.1 137.116 250.532 136.576 250.964 136.144H164.78C165.86 137.008 166.724 138.088 167.372 139.384H146.636C147.068 140.032 147.284 141.22 147.284 142.948V145.864H148.256V149.104H143.72V150.724H151.82V153.964H157.652V158.824H145.34V163.684H124.928V170.164H136.268V173.404H145.664V176.644H151.82V178.264H169.316V181.504H154.736V187.984H172.556V189.604H151.82V194.464H148.58V200.944H109.7ZM243.836 290.044V286.804H218.564V285.184H205.604V282.268H153.116V285.184H186.812V286.804H117.8V290.044H191.024V294.904H242.54V290.044H243.836ZM222.776 301.384H187.136V296.524H175.472V294.904H131.084V296.524H154.412V301.384H149.552V304.624H139.184V311.104H135.944V312.724H151.172V317.584H160.244V319.204H147.284V324.064H128.816V330.544H218.24V324.064H215V319.204H213.704V317.584H181.952V312.724H203.336V311.104H204.308V304.624H222.776V301.384ZM551.785 343.504L554.053 349.984H548.545L549.193 351.604C549.193 351.82 549.193 352.144 549.193 352.576C549.409 352.792 549.517 353.008 549.517 353.224H547.573V353.872C547.573 356.464 546.601 358.408 544.657 359.704H544.981C543.901 360.568 542.497 361 540.769 361H480.829C479.317 361 478.021 360.892 476.941 360.676C476.077 360.244 475.105 359.92 474.025 359.704C472.297 358.84 471.001 357.868 470.137 356.788C469.273 355.492 468.625 354.304 468.193 353.224H469.813V352.9L469.165 351.604L468.517 349.984H474.025L471.757 343.504H465.601L464.629 340.264H477.913L475.645 333.784H471.757L470.785 331.516H401.125L400.477 333.784H396.589L394.321 340.264H390.757L389.461 343.504H387.517L385.249 349.984H385.573L384.925 351.604L384.601 352.9L384.277 353.224H382.657C382.225 354.304 381.577 355.492 380.713 356.788C379.849 357.868 378.553 358.84 376.825 359.704H386.545C385.681 359.92 384.709 360.244 383.629 360.676C382.549 360.892 381.253 361 379.741 361H319.801C318.073 361 316.777 360.568 315.913 359.704H306.193C304.033 358.192 302.953 356.248 302.953 353.872V353.224H304.897C304.897 352.576 305.005 352.036 305.221 351.604L305.545 349.984H305.221L307.489 343.504H309.433L310.729 340.264H314.293L316.561 333.784H320.125L322.393 327.304H309.757L311.053 324.064H310.081L311.701 319.204H314.941L315.589 317.584H308.461L310.729 311.104H321.745L322.717 307.864H312.673L313.321 306.244H314.941L317.209 299.764H316.237L317.857 294.904H319.153L321.421 288.424H325.633L327.253 283.564L327.901 281.944H344.101L344.749 280.324H343.777L345.397 275.464H327.253L329.521 268.984H335.353L336.001 267.364H332.437L333.085 265.744H343.453L345.721 259.264H333.085L334.381 256.024H339.241L341.509 249.544H338.593L340.213 244.684H343.777L346.045 238.204H345.073L345.721 236.584H338.269L339.565 233.344H346.693L348.313 228.484H345.073L345.397 226.864H351.229L353.497 220.384H346.369L347.989 215.524H344.425L345.397 212.284H323.041L324.013 209.044H319.801L322.069 202.564H317.857L319.801 197.704H332.437L334.705 191.224H367.105L368.725 186.364H353.173L354.469 183.124H366.457L368.725 176.644H358.033L359.653 171.784H366.457L368.725 165.304H367.753L370.021 158.824H360.949L361.273 157.204H392.377L394.645 150.724H393.673L394.321 149.104H382.981L384.277 144.892L385.249 142.624H388.489L390.433 139.384H389.461C390.541 137.872 392.053 136.684 393.997 135.82C395.941 134.74 398.317 134.2 401.125 134.2H471.433C474.241 134.2 476.617 134.74 478.561 135.82C480.505 136.684 482.017 137.872 483.097 139.384H484.393L486.337 142.624H483.097C483.529 143.488 483.745 144.244 483.745 144.892L485.365 149.104H496.705L497.029 150.724H498.001L500.269 157.204H469.489L470.137 158.824H479.209L481.477 165.304H482.449L484.717 171.784H477.913L479.533 176.644H490.225L492.493 183.124H480.505L481.801 186.364H497.353L498.973 191.224H466.573L468.841 197.704H456.205L457.825 202.564H461.713L463.981 209.044H451.345L452.641 212.284H504.157L505.129 215.524H502.537L504.157 220.384H497.677L499.945 226.864H492.169L492.493 228.484H504.157L505.777 233.344H506.101L507.397 236.584H496.705L497.353 238.204H507.721L509.989 244.684H513.553L515.173 249.544H514.201L516.469 256.024H521.653L522.949 259.264H513.553L515.821 265.744H522.301L522.625 267.364H521.005L521.653 268.984H515.821L517.765 275.464H536.233L537.853 280.324H538.825L539.473 281.944H522.949L523.597 283.564H523.921L525.541 288.424H521.329L523.597 294.904H521.977L523.921 299.764H524.893L527.161 306.244H525.541L526.189 307.864H536.233L537.529 311.104H526.189L528.457 317.584H535.585L536.233 319.204H532.993L534.937 324.064H535.585L536.881 327.304H549.517L551.785 333.784H555.673L557.941 340.264H544.657L545.629 343.504H551.785ZM416.353 215.524H420.241L418.621 220.384H431.905L430.285 215.524H432.877L431.905 212.284H417.325L416.353 215.524ZM427.045 226.864L425.425 221.356L423.805 226.864H427.045ZM407.605 265.744L406.957 267.364H410.521L410.197 268.336H446.809L446.485 267.364H448.105L447.781 265.744H441.301L439.357 259.264H448.753L447.781 256.024H442.273L440.329 249.544H441.301L440.005 244.684H436.441L434.497 238.204H424.129L423.481 236.584H434.173L433.201 233.344H432.877L431.257 228.484H420.889L419.593 233.344H412.465L411.493 236.584H418.621L418.297 238.204H419.269L417.325 244.684H413.761L412.141 249.544H415.057L413.113 256.024H408.253L407.281 259.264H419.917L417.973 265.744H407.605ZM753.098 197.704H742.406L742.082 199.324H772.862L770.918 205.804H744.998L743.378 212.284H742.082L741.11 215.524H716.486L714.542 222.004H699.638L698.666 225.244H736.25L735.926 226.864H737.87L735.926 233.344H731.39L730.094 238.204H735.926L734.954 241.444H736.25L735.278 244.684H726.53L725.234 249.544H731.39L730.418 252.784H721.67L721.022 256.024H713.894L712.598 260.884H709.358L708.386 264.124H723.614L722.642 267.364H733.334L732.686 268.984H701.258L699.314 275.464H712.274L710.978 280.324H697.37L695.426 286.804H712.922L711.302 291.664H714.218L713.894 293.284H715.838L715.19 294.904H716.486L716.162 296.524H713.894L712.922 299.764H709.682L708.386 304.624H710.006L709.034 307.864H709.682L708.062 312.724H708.386L707.09 317.584H706.766L705.146 322.444H700.934L699.962 325.684H701.258L700.934 327.304H703.526L701.582 333.784H704.174L703.202 337.024H701.582L700.286 341.884H702.878L701.906 345.124H698.666L698.018 348.364H690.89L690.242 350.308L689.918 351.604H707.09C706.01 353.98 704.39 356.14 702.23 358.084H660.758C660.11 358.732 659.246 359.272 658.166 359.704H693.806C692.942 359.92 691.97 360.244 690.89 360.676C689.81 360.892 688.622 361 687.326 361H613.454C612.158 361 610.97 360.892 609.89 360.676C609.026 360.244 608.054 359.92 606.974 359.704H571.01C570.146 359.272 569.282 358.732 568.418 358.084H609.566C607.406 356.14 605.786 353.98 604.706 351.604H587.858C587.642 351.388 587.534 351.172 587.534 350.956C587.534 350.74 587.426 350.524 587.21 350.308L586.562 348.364H593.69L592.718 345.124H595.958L594.986 341.884H592.07L590.774 337.024H592.07L591.098 333.784H588.83L586.886 327.304H584.294L583.97 325.684H582.674L581.702 322.444H585.914L584.294 317.584H584.618L583.322 312.724H582.998L581.702 307.864H581.054L580.082 304.624H578.462L577.166 299.764H580.082L579.11 296.524H581.378L581.054 294.904H579.758L579.11 293.284H577.166L576.842 291.664H573.926L572.306 286.804H554.81L552.866 280.324H566.474L565.178 275.464H552.218L550.274 268.984H581.702L581.378 267.364H571.01L570.038 264.124H580.082L579.11 260.884H565.178L563.882 256.024H568.418L567.446 252.784H565.502L564.53 249.544H569.714L568.418 244.684H561.614L560.642 241.444H572.954L571.982 238.204H559.67L558.374 233.344H561.938L559.994 226.864H548.654L548.006 225.244H549.626L548.654 222.004H562.586L560.642 215.524H551.894L550.922 212.284H553.514L551.894 205.804H571.334L569.39 199.324H539.258L538.61 197.704H606.002L605.03 194.464H568.742L567.122 189.604H590.126L588.182 183.124H585.59L583.646 176.644H572.306L571.334 173.404H539.906L537.962 166.924H540.23L539.258 163.684L538.934 162.064H537.314L536.666 160.444L534.722 153.964H533.102L532.454 152.344H529.862L528.566 147.484H504.914L504.266 145.864H522.734L522.086 143.596C522.086 143.38 522.086 143.272 522.086 143.272C521.87 143.056 521.762 142.84 521.762 142.624H525.65V141.328C525.65 139.384 526.406 137.656 527.918 136.144H513.662C514.958 134.848 516.578 134.2 518.522 134.2H578.786C582.026 134.2 584.618 134.848 586.562 136.144H600.818C603.41 137.656 605.462 139.816 606.974 142.624H602.762L603.734 144.892L604.058 145.864H585.59L585.914 147.484H609.566L610.862 152.344H613.454L613.778 153.964H615.722L617.342 160.444L617.666 162.064H619.61L619.934 163.684H619.61L620.582 166.924H618.638L620.258 173.404H651.686L652.334 176.644H665.294L666.266 173.404H667.886L669.506 166.924H670.478L671.126 163.684H672.098L672.422 162.064H663.998L664.322 160.444H672.422L674.042 153.964H667.886L668.21 152.344H643.262L644.558 147.484H655.898L656.222 145.864H634.838L635.162 144.892C635.378 144.46 635.486 144.028 635.486 143.596C635.486 143.164 635.594 142.84 635.81 142.624H674.69C675.77 139.816 677.714 137.656 680.522 136.144H692.51C694.886 134.848 697.586 134.2 700.61 134.2H760.874C762.818 134.2 764.438 134.848 765.734 136.144H753.422C754.934 137.656 755.69 139.384 755.69 141.328V142.624H717.134C716.918 142.84 716.81 143.164 716.81 143.596L716.162 145.864H737.546L737.222 147.484H725.558L724.262 152.344H749.21L748.886 153.964H754.718L752.774 160.444H744.998L744.674 162.064H753.098L752.774 163.684H751.802L750.83 166.924H749.858L747.914 173.404H746.294L745.322 176.644H743.054L741.434 183.124H781.61L779.666 189.604H757.31L755.69 194.464H753.746L753.098 197.704ZM646.826 189.604L647.798 194.464H676.31L677.606 189.604H700.286L701.906 183.124H667.886L669.506 189.604H646.826ZM691.862 205.804L693.482 199.324H663.026L663.35 197.704H617.99L618.314 199.324H648.446L650.39 205.804H630.626L632.246 212.284H629.654L630.626 215.524H662.702L663.35 212.284H664.646L666.266 205.804H691.862ZM659.786 226.864H657.842L658.166 225.244H626.414L626.738 226.864H638.078L639.698 233.344H636.134L637.43 238.204H649.418L650.39 241.444H638.078L639.05 244.684H645.854L646.826 249.544H641.642L642.614 252.784H644.234L644.558 253.756L644.882 252.784H653.306L654.278 249.544H648.122L649.094 244.684H658.166L658.814 241.444H657.518L658.166 238.204H652.658L653.63 233.344H658.166L659.786 226.864ZM985.92 304.624H1011.52V309.484H962.268V315.964H994.02V322.444H966.156V328.924H969.72V333.784H967.452V337.024H960.648V340.264H960.324V343.504H967.128V349.984H976.524V352.252C976.524 352.684 976.416 353.008 976.2 353.224H918.528C918.312 353.656 918.204 354.196 918.204 354.844H940.56C939.912 357.004 938.724 358.624 936.996 359.704H930.84C929.76 360.568 928.248 361 926.304 361H757.5C755.772 361 754.152 360.568 752.64 359.704H758.796C757.284 358.624 756.096 357.004 755.232 354.844H732.552C732.336 354.412 732.228 353.872 732.228 353.224H790.224V349.984H780.828V343.504H774.024V340.264H774.348V337.024H781.152V333.784H783.42V328.924H779.856V322.444H807.72V315.964H775.968V309.484H825.216V304.624H799.62V301.384H807.072V298.144H810.312V294.904H774.348V291.664H765.924V286.804H796.056V285.184H772.08V281.944H779.208V278.704H784.392V273.844H783.744V267.364H780.504V260.884H775.644V257.644H779.532V251.164H775.968V247.924H781.152V243.064H782.448V238.204H788.28V236.584H782.772V230.104H777.912V225.244H779.208V220.384H779.856V213.904H784.716V207.424H777.588V200.944H778.56V194.464H787.632V189.604H782.772V184.744H780.18V183.124H793.788V178.264H817.764V175.024H808.044V171.784H776.616V170.164H780.18V165.304H780.504V160.444H781.476V153.964H781.152V145.864H780.504V142.948C780.504 142.084 780.612 141.436 780.828 141.004H777.588C778.452 136.468 781.26 134.2 786.012 134.2H952.224C957.192 134.2 960 136.468 960.648 141.004H963.888C964.104 141.436 964.212 142.084 964.212 142.948V145.864H964.86V153.964H965.184V160.444H964.212V165.304H963.888V170.164H960.324V171.784H991.752V175.024H1001.47V178.264H977.496V183.124H963.888V184.744H966.48V189.604H971.34C970.908 191.764 970.152 193.384 969.072 194.464H960C958.488 196.408 956.328 197.38 953.52 197.38H856.32V200.944H855.348V207.424H862.476V213.904H857.616V217.792H947.688C950.064 217.792 952.116 218.656 953.844 220.384H953.196C954.276 221.464 955.032 223.084 955.464 225.244H954.492V230.104H959.352V236.584H964.86V238.204H959.028V243.064H957.732V247.924H952.548V251.164H956.112V257.644H952.224V260.884H957.084V267.364H960.324V268.66C960.324 271.036 959.784 272.764 958.704 273.844H959.352C957.624 276.22 955.248 277.408 952.224 277.408H862.152V278.704H856.968V281.944H849.84V285.184H873.816V286.804H843.684V291.664H852.108V294.904H888.072V297.82H987.864C988.944 297.82 989.808 297.928 990.456 298.144H986.892C989.052 298.792 990.672 299.872 991.752 301.384H984.3C985.164 302.68 985.704 303.76 985.92 304.624ZM1231.83 343.504H1233.45V346.744H1225.03V353.224H1203.65C1203.65 354.088 1203.43 354.952 1203 355.816C1202.57 356.68 1202.13 357.436 1201.7 358.084H1190.69C1189.82 358.948 1189.17 359.488 1188.74 359.704H1201.7C1200.62 360.568 1199.11 361 1197.17 361H1145.97C1144.68 361 1143.49 360.892 1142.41 360.676C1141.33 360.244 1140.36 359.92 1139.49 359.704H1126.21C1125.35 359.272 1124.48 358.732 1123.62 358.084H1134.63C1133.55 357.22 1132.69 356.356 1132.04 355.492C1131.39 354.628 1130.85 353.98 1130.42 353.548V353.224H1151.48L1147.27 346.744H1155.69L1153.43 343.504H1151.81L1148.57 338.644H1111.31L1106.77 332.164H1111.63L1107.42 325.684H1096.08L1094.78 324.064H1109.69L1106.45 319.204H1113.25L1110.01 314.344H1096.73L1092.51 307.864H1112.93L1111.95 306.244H1101.26L1099.32 303.004H1089.27L1085.06 296.524H1079.55L1078.58 294.904H1093.49L1090.25 290.044H1073.4V294.904H1057.2V296.524H1079.23V303.004H1082.47V306.244H1082.79V307.864H1073.4V314.344H1058.17V319.204H1075.99V324.064H1072.75V325.684H1068.86V332.164H1075.99V338.644H1078.91V343.504H1065.62V346.744H1076.96V353.224H1062.71C1062.71 354.088 1062.49 354.952 1062.06 355.816C1061.63 356.68 1061.19 357.436 1060.76 358.084H1071.13C1070.27 358.948 1069.62 359.488 1069.19 359.704H1059.14C1058.06 360.568 1056.55 361 1054.61 361H995.962C993.802 361 992.182 360.568 991.102 359.704H1001.47C1001.04 359.488 1000.39 358.948 999.526 358.084H988.834C988.402 357.436 987.97 356.68 987.538 355.816C987.106 354.952 986.89 354.088 986.89 353.224H1000.82V346.744H989.482V343.504H1002.77V338.644H999.85V332.164H992.722V325.684H996.61V324.064H999.85V319.204H982.03V314.344H997.258V307.864H1006.65V306.244H1006.33V303.004H1003.09V296.524H981.058V294.904H997.258V290.044H1012.81V288.424H995.638V286.804H1002.12V280.324H996.934V273.844H997.258V272.224H994.666V270.604H994.99V265.744H982.678V264.124H991.102V260.884H971.985V254.404H1004.06V251.164H983.65V244.684H995.314V243.064H997.258V238.204H1003.09V234.964H1006.01V230.104H997.582V228.484H994.342V225.244H991.102V218.764H997.258V213.904H1006.01V210.664H1026.42V209.044H1001.15V207.424H992.722V202.564H989.158V197.704H994.99V191.224H1003.41V186.364H1011.51V183.124H995.314V181.504H997.258V175.024H1004.71V173.404H989.482V170.164H998.878V163.684H986.566V158.824H994.666V155.584H965.829V150.724H959.673V147.484H981.382V142.948C981.382 142.084 981.49 141.436 981.706 141.004H1003.41C1003.41 140.14 1003.85 139.06 1004.71 137.764H998.878C1000.61 135.388 1002.98 134.2 1006.01 134.2H1057.2C1059.57 134.2 1061.63 134.524 1063.35 135.172C1065.08 135.82 1066.49 136.684 1067.57 137.764H1073.4C1074.26 138.628 1075.13 139.708 1075.99 141.004H1054.28C1054.28 141.22 1054.28 141.328 1054.28 141.328C1054.5 141.328 1054.61 141.436 1054.61 141.652L1058.17 147.484H1036.46L1038.41 150.724H1044.56L1047.48 155.584H1076.31L1078.26 158.824H1070.48L1073.4 163.684H1085.39L1089.6 170.164H1080.2L1082.15 173.404H1097.37L1098.35 175.024H1090.89L1094.78 181.504H1092.84L1093.81 183.124H1110.01L1111.95 186.364H1103.85L1107.09 191.224H1098.67L1102.56 197.704H1096.4L1099.32 202.564H1102.88L1106.12 207.424H1114.55L1115.52 209.044H1120.38V207.424H1130.1V202.564H1120.7V197.704H1122.97V191.224H1129.45V186.364H1137.23V183.124H1121.67V175.024H1140.79V173.404H1140.47V170.164H1120.05V163.684H1127.18V158.824H1136.58V155.584H1116.81V150.724H1142.09V147.484H1140.14V142.948C1140.14 142.084 1140.25 141.436 1140.47 141.004H1129.77C1129.99 140.14 1130.53 139.06 1131.39 137.764H1120.38C1122.11 135.388 1124.48 134.2 1127.51 134.2H1186.15C1189.17 134.2 1191.55 135.388 1193.28 137.764H1204.29C1204.73 138.628 1205.16 139.708 1205.59 141.004H1216.28V147.484H1218.23V150.724H1192.95V155.584H1212.72V158.824H1203.32V163.684H1196.19V170.164H1216.61V173.404H1216.93V175.024H1197.81V183.124H1213.37V186.364H1205.59V191.224H1199.11V197.704H1196.84V202.564H1206.24V207.424H1196.52V209.044H1219.2V210.664H1207.21V213.904H1203.97V218.764H1193.28V225.244H1182.26V228.484H1199.11V230.104H1210.13V234.964H1207.21V238.204H1201.38V243.064H1199.43V244.684H1187.77V251.164H1208.18V254.404H1176.11V260.884H1195.22V264.124H1186.8V265.744H1199.11V270.604H1198.79V272.224H1209.15V273.844H1202.03V280.324H1202.67V286.804H1211.75V288.424H1196.19V290.044H1205.59V294.904H1190.69V296.524H1195.87V303.004H1205.91V306.244H1216.61V307.864H1195.87V314.344H1209.15V319.204H1202.35V324.064H1187.77V325.684H1199.11V332.164H1194.25V338.644H1231.83V343.504ZM1143.06 209.044H1140.79L1141.76 210.664H1143.06V209.044ZM1121.35 210.664L1123.29 213.904H1114.55L1117.46 218.764H1127.83V213.904H1131.07V210.664H1121.35ZM1117.14 218.764H1111.31L1115.19 225.244H1117.14V218.764ZM1095.43 288.424L1094.46 286.804H1085.39L1081.17 280.324H1080.2L1075.99 273.844H1083.12L1081.82 272.224H1073.4V273.844H1073.07V280.324H1078.26V286.804H1071.78V288.424H1095.43Z" fill="white"/>
</svg>
